<?xml version="1.0" encoding="utf-8"?>
<!-- Generator: Adobe Illustrator 21.1.0, SVG Export Plug-In . SVG Version: 6.00 Build 0)  -->
<svg version="1.1" id="Capa_1" xmlns="http://www.w3.org/2000/svg" xmlns:xlink="http://www.w3.org/1999/xlink" x="0px" y="0px"
	 width="62.5px" height="97.8px" viewBox="0 0 62.5 97.8" style="enable-background:new 0 0 62.5 97.8;" xml:space="preserve">
<style type="text/css">
	.st0{fill:#FFFFFF;}
	.st1{fill-rule:evenodd;clip-rule:evenodd;}
	.st2{fill:none;stroke:#000000;stroke-width:2.5795;stroke-linecap:round;stroke-linejoin:bevel;stroke-miterlimit:10;}
	.st3{fill-rule:evenodd;clip-rule:evenodd;fill:#FFFFFF;}
	.st4{fill:none;stroke:#000000;stroke-width:0.7087;stroke-linecap:round;stroke-linejoin:bevel;stroke-miterlimit:10;}
	.st5{fill:none;stroke:#000000;stroke-width:0.5669;stroke-linecap:round;stroke-linejoin:bevel;stroke-miterlimit:10;}
</style>
<rect class="st0" width="62.5" height="97.8"/>
<circle class="st1" cx="54.3" cy="49.3" r="1.3"/>
<line class="st2" x1="54.3" y1="49.3" x2="54.3" y2="48.9"/>
<line class="st2" x1="24.4" y1="35.6" x2="33.8" y2="35.6"/>
<circle class="st1" cx="33.8" cy="35.6" r="1.3"/>
<line class="st2" x1="33.8" y1="35.6" x2="39.2" y2="30.2"/>
<circle class="st1" cx="39.2" cy="30.2" r="1.3"/>
<line class="st2" x1="39.2" y1="30.2" x2="39.2" y2="26.2"/>
<line class="st2" x1="17.9" y1="73.7" x2="19.6" y2="75.4"/>
<circle class="st1" cx="19.6" cy="75.4" r="1.3"/>
<line class="st2" x1="19.6" y1="75.4" x2="28.9" y2="75.4"/>
<circle class="st1" cx="28.9" cy="75.4" r="1.3"/>
<line class="st2" x1="28.9" y1="75.4" x2="32.7" y2="71.6"/>
<circle class="st1" cx="32.7" cy="71.6" r="1.3"/>
<line class="st2" x1="32.7" y1="71.6" x2="32.7" y2="70.5"/>
<circle class="st1" cx="21.9" cy="86.3" r="1.3"/>
<line class="st2" x1="20.8" y1="86.3" x2="21.9" y2="86.3"/>
<circle class="st1" cx="21.9" cy="86.3" r="1.3"/>
<line class="st2" x1="21.9" y1="86.3" x2="41.7" y2="86.3"/>
<line class="st2" x1="17.9" y1="48.5" x2="23.7" y2="42.8"/>
<circle class="st1" cx="23.7" cy="42.8" r="1.3"/>
<line class="st2" x1="23.7" y1="42.8" x2="24.4" y2="42.8"/>
<line class="st2" x1="11.8" y1="34.1" x2="11.8" y2="22.3"/>
<circle class="st1" cx="11.8" cy="22.3" r="1.3"/>
<line class="st2" x1="11.8" y1="22.3" x2="14.3" y2="19.7"/>
<circle class="st1" cx="14.3" cy="19.7" r="1.3"/>
<line class="st2" x1="14.3" y1="19.7" x2="49.6" y2="19.7"/>
<circle class="st1" cx="49.6" cy="19.7" r="1.3"/>
<line class="st2" x1="49.6" y1="19.7" x2="53.6" y2="23.7"/>
<circle class="st1" cx="53.6" cy="23.7" r="1.3"/>
<line class="st2" x1="53.6" y1="23.7" x2="53.6" y2="26.2"/>
<circle class="st1" cx="54.3" cy="49.3" r="1.3"/>
<line class="st2" x1="24.4" y1="42.8" x2="47.8" y2="42.8"/>
<circle class="st1" cx="47.8" cy="42.8" r="1.3"/>
<line class="st2" x1="47.8" y1="42.8" x2="54.3" y2="49.3"/>
<circle class="st1" cx="54.3" cy="49.3" r="1.3"/>
<line class="st2" x1="47.1" y1="70.5" x2="48.8" y2="70.5"/>
<circle class="st1" cx="48.8" cy="70.5" r="1.3"/>
<line class="st2" x1="48.8" y1="70.5" x2="54.3" y2="65"/>
<circle class="st1" cx="54.3" cy="65" r="1.3"/>
<line class="st2" x1="54.3" y1="65" x2="54.3" y2="49.3"/>
<line class="st2" x1="39.9" y1="70.5" x2="39.9" y2="72.1"/>
<circle class="st1" cx="39.9" cy="72.1" r="1.3"/>
<line class="st2" x1="39.9" y1="72.1" x2="43.1" y2="75.3"/>
<circle class="st1" cx="43.1" cy="75.3" r="1.3"/>
<line class="st2" x1="43.1" y1="75.3" x2="53.1" y2="75.3"/>
<circle class="st1" cx="53.1" cy="75.3" r="1.3"/>
<line class="st2" x1="53.1" y1="75.3" x2="54.3" y2="74.1"/>
<line class="st2" x1="54.3" y1="74.1" x2="54.3" y2="84.9"/>
<circle class="st1" cx="54.3" cy="84.9" r="1.3"/>
<line class="st2" x1="54.3" y1="84.9" x2="55.8" y2="86.3"/>
<circle class="st1" cx="55.8" cy="86.3" r="1.3"/>
<line class="st2" x1="55.8" y1="86.3" x2="56.1" y2="86.3"/>
<line class="st2" x1="25.5" y1="63.3" x2="15.6" y2="63.3"/>
<line class="st2" x1="15.9" y1="86.3" x2="20.8" y2="86.3"/>
<circle class="st1" cx="20.8" cy="86.3" r="1.3"/>
<path class="st2" d="M20.8,86.3"/>
<line class="st2" x1="6.8" y1="54.5" x2="6.8" y2="36.5"/>
<circle class="st1" cx="6.8" cy="36.5" r="1.3"/>
<line class="st2" x1="6.8" y1="36.5" x2="9.2" y2="34.1"/>
<circle class="st1" cx="9.2" cy="34.1" r="1.3"/>
<line class="st2" x1="9.2" y1="34.1" x2="11.8" y2="34.1"/>
<line class="st2" x1="11.8" y1="48.5" x2="11.8" y2="41.7"/>
<circle class="st1" cx="11.8" cy="41.7" r="1.3"/>
<line class="st2" x1="11.8" y1="41.7" x2="12.2" y2="41.3"/>
<circle class="st1" cx="12.2" cy="41.3" r="1.3"/>
<line class="st2" x1="12.2" y1="41.3" x2="11.8" y2="41.3"/>
<circle class="st1" cx="6.4" cy="60.8" r="1.3"/>
<line class="st2" x1="6.4" y1="86.3" x2="6.4" y2="60.8"/>
<circle class="st1" cx="6.4" cy="60.8" r="1.3"/>
<line class="st2" x1="6.4" y1="60.8" x2="3.2" y2="57.5"/>
<circle class="st1" cx="3.2" cy="57.5" r="1.3"/>
<line class="st2" x1="3.2" y1="57.5" x2="3.2" y2="19.4"/>
<circle class="st1" cx="3.2" cy="19.4" r="1.3"/>
<line class="st2" x1="3.2" y1="19.4" x2="8.6" y2="14"/>
<circle class="st1" cx="6.4" cy="60.8" r="1.3"/>
<line class="st2" x1="6.4" y1="60.8" x2="12.2" y2="54.9"/>
<circle class="st1" cx="12.2" cy="54.9" r="1.3"/>
<line class="st2" x1="12.2" y1="54.9" x2="35.9" y2="54.9"/>
<circle class="st1" cx="35.9" cy="54.9" r="1.3"/>
<line class="st2" x1="35.9" y1="54.9" x2="39.9" y2="59"/>
<circle class="st1" cx="39.9" cy="59" r="1.3"/>
<line class="st2" x1="39.9" y1="59" x2="39.9" y2="63.3"/>
<line class="st2" x1="47.1" y1="63.3" x2="47.1" y2="54.2"/>
<line class="st2" x1="24.4" y1="50" x2="44.6" y2="50"/>
<circle class="st1" cx="44.6" cy="50" r="1.3"/>
<line class="st2" x1="44.6" y1="50" x2="47" y2="47.7"/>
<line class="st2" x1="11.8" y1="73.7" x2="11.8" y2="62.1"/>
<circle class="st1" cx="11.8" cy="62.1" r="1.3"/>
<line class="st2" x1="11.8" y1="62.1" x2="15.5" y2="58.5"/>
<circle class="st1" cx="15.5" cy="58.5" r="1.3"/>
<line class="st2" x1="15.5" y1="58.5" x2="32.2" y2="58.5"/>
<circle class="st1" cx="32.2" cy="58.5" r="1.3"/>
<line class="st2" x1="32.2" y1="58.5" x2="32.7" y2="59"/>
<line class="st2" x1="32.7" y1="59" x2="32.7" y2="63.3"/>
<line class="st2" x1="19.7" y1="66.9" x2="23.4" y2="70.5"/>
<circle class="st1" cx="23.4" cy="70.5" r="1.3"/>
<line class="st2" x1="23.4" y1="70.5" x2="25.5" y2="70.5"/>
<line class="st2" x1="59.1" y1="58.6" x2="59.1" y2="20.9"/>
<circle class="st1" cx="59.1" cy="20.9" r="1.3"/>
<line class="st2" x1="59.1" y1="20.9" x2="45" y2="6.8"/>
<circle class="st1" cx="45" cy="6.8" r="1.3"/>
<line class="st2" x1="45" y1="6.8" x2="8.6" y2="6.8"/>
<circle class="st1" cx="15.6" cy="63.3" r="1.4"/>
<circle class="st3" cx="15.6" cy="63.3" r="0.5"/>
<circle class="st1" cx="6.8" cy="54.5" r="1.4"/>
<circle class="st3" cx="6.8" cy="54.5" r="0.5"/>
<circle class="st1" cx="47" cy="47.7" r="1.4"/>
<circle class="st3" cx="47" cy="47.7" r="0.5"/>
<circle class="st1" cx="47.1" cy="54.2" r="1.4"/>
<circle class="st3" cx="47.1" cy="54.2" r="0.5"/>
<circle class="st1" cx="19.7" cy="66.9" r="1.4"/>
<circle class="st3" cx="19.7" cy="66.9" r="0.5"/>
<circle class="st1" cx="32.7" cy="59" r="1.4"/>
<circle class="st3" cx="32.7" cy="59" r="0.5"/>
<circle class="st1" cx="59.1" cy="58.6" r="1.4"/>
<circle class="st3" cx="59.1" cy="58.6" r="0.5"/>
<circle class="st1" cx="15.9" cy="86.3" r="1.4"/>
<circle class="st3" cx="15.9" cy="86.3" r="0.5"/>
<polygon class="st1" points="2.2,13.1 2.2,13.6 2.1,13.7 2.1,2.1 2.2,2.1 "/>
<circle class="st1" cx="2.2" cy="13.1" r="1.3"/>
<line class="st2" x1="2.2" y1="13.1" x2="2.2" y2="13.6"/>
<circle class="st1" cx="2.2" cy="13.6" r="1.3"/>
<line class="st2" x1="2.2" y1="13.6" x2="2.1" y2="13.7"/>
<circle class="st1" cx="2.1" cy="13.7" r="1.3"/>
<line class="st2" x1="2.1" y1="13.7" x2="2.1" y2="2.1"/>
<circle class="st1" cx="2.1" cy="2.1" r="1.3"/>
<line class="st2" x1="2.1" y1="2.1" x2="2.2" y2="2.1"/>
<circle class="st1" cx="2.2" cy="2.1" r="1.3"/>
<line class="st2" x1="2.2" y1="2.1" x2="2.2" y2="13.1"/>
<polygon class="st1" points="60.4,15.5 47,2.1 60.4,2.1 "/>
<circle class="st1" cx="60.4" cy="15.5" r="1.3"/>
<line class="st2" x1="60.4" y1="15.5" x2="47" y2="2.1"/>
<circle class="st1" cx="47" cy="2.1" r="1.3"/>
<line class="st2" x1="47" y1="2.1" x2="60.4" y2="2.1"/>
<circle class="st1" cx="60.4" cy="2.1" r="1.3"/>
<line class="st2" x1="60.4" y1="2.1" x2="60.4" y2="15.5"/>
<path class="st1" d="M15.2,88.2h1.5l1.1-1.1v-1.5l-1.1-1.1h-1.5l-1.1,1.1v1.5L15.2,88.2z M40.7,88.7h2l1.4-1.4v-2L42.7,84h-2
	l-1.4,1.4v2L40.7,88.7z M19.8,88.7h2l1.4-1.4v-2L21.8,84h-2l-1.4,1.4v2L19.8,88.7z M39.7,78.6l1.4,1.4h8.5v6.8l0.6,0.6v4.9h10.3v3.4
	H2.1v-3.4h10.3v-12h-1.2v-0.7h3.1l0.6-0.6l0.6,0.6h1.7l0.4,0.5h13.2l3.5-3.5h3.3L39.7,78.6z"/>
<circle class="st1" cx="39.7" cy="78.6" r="1.3"/>
<line class="st2" x1="39.7" y1="78.6" x2="41.1" y2="80"/>
<circle class="st1" cx="41.1" cy="80" r="1.3"/>
<line class="st2" x1="41.1" y1="80" x2="49.5" y2="80"/>
<circle class="st1" cx="49.5" cy="80" r="1.3"/>
<line class="st2" x1="49.5" y1="80" x2="49.5" y2="86.9"/>
<circle class="st1" cx="49.5" cy="86.9" r="1.3"/>
<line class="st2" x1="49.5" y1="86.9" x2="50.1" y2="87.4"/>
<circle class="st1" cx="50.1" cy="87.4" r="1.3"/>
<line class="st2" x1="50.1" y1="87.4" x2="50.1" y2="92.3"/>
<circle class="st1" cx="50.1" cy="92.3" r="1.3"/>
<line class="st2" x1="50.1" y1="92.3" x2="60.4" y2="92.3"/>
<circle class="st1" cx="60.4" cy="92.3" r="1.3"/>
<line class="st2" x1="60.4" y1="92.3" x2="60.4" y2="95.7"/>
<circle class="st1" cx="60.4" cy="95.7" r="1.3"/>
<line class="st2" x1="60.4" y1="95.7" x2="2.1" y2="95.7"/>
<circle class="st1" cx="2.1" cy="95.7" r="1.3"/>
<line class="st2" x1="2.1" y1="95.7" x2="2.1" y2="92.3"/>
<circle class="st1" cx="2.1" cy="92.3" r="1.3"/>
<line class="st2" x1="2.1" y1="92.3" x2="12.4" y2="92.3"/>
<circle class="st1" cx="12.4" cy="92.3" r="1.3"/>
<line class="st2" x1="12.4" y1="92.3" x2="12.4" y2="80.4"/>
<circle class="st1" cx="12.4" cy="80.4" r="1.3"/>
<line class="st2" x1="12.4" y1="80.4" x2="11.2" y2="80.4"/>
<circle class="st1" cx="11.2" cy="80.4" r="1.3"/>
<line class="st2" x1="11.2" y1="80.4" x2="11.2" y2="79.7"/>
<circle class="st1" cx="11.2" cy="79.7" r="1.3"/>
<line class="st2" x1="11.2" y1="79.7" x2="14.3" y2="79.7"/>
<circle class="st1" cx="14.3" cy="79.7" r="1.3"/>
<line class="st2" x1="14.3" y1="79.7" x2="14.9" y2="79.1"/>
<circle class="st1" cx="14.9" cy="79.1" r="1.3"/>
<line class="st2" x1="14.9" y1="79.1" x2="15.5" y2="79.7"/>
<circle class="st1" cx="15.5" cy="79.7" r="1.3"/>
<line class="st2" x1="15.5" y1="79.7" x2="17.2" y2="79.7"/>
<circle class="st1" cx="17.2" cy="79.7" r="1.3"/>
<line class="st2" x1="17.2" y1="79.7" x2="17.6" y2="80.2"/>
<circle class="st1" cx="17.6" cy="80.2" r="1.3"/>
<line class="st2" x1="17.6" y1="80.2" x2="30.8" y2="80.2"/>
<circle class="st1" cx="30.8" cy="80.2" r="1.3"/>
<line class="st2" x1="30.8" y1="80.2" x2="34.4" y2="76.6"/>
<circle class="st1" cx="34.4" cy="76.6" r="1.3"/>
<line class="st2" x1="34.4" y1="76.6" x2="37.7" y2="76.6"/>
<circle class="st1" cx="37.7" cy="76.6" r="1.3"/>
<line class="st2" x1="37.7" y1="76.6" x2="39.7" y2="78.6"/>
<circle class="st1" cx="19.8" cy="88.7" r="1.3"/>
<line class="st2" x1="19.8" y1="88.7" x2="21.8" y2="88.7"/>
<circle class="st1" cx="21.8" cy="88.7" r="1.3"/>
<line class="st2" x1="21.8" y1="88.7" x2="23.2" y2="87.3"/>
<circle class="st1" cx="23.2" cy="87.3" r="1.3"/>
<line class="st2" x1="23.2" y1="87.3" x2="23.2" y2="85.4"/>
<circle class="st1" cx="23.2" cy="85.4" r="1.3"/>
<line class="st2" x1="23.2" y1="85.4" x2="21.8" y2="84"/>
<circle class="st1" cx="21.8" cy="84" r="1.3"/>
<line class="st2" x1="21.8" y1="84" x2="19.8" y2="84"/>
<circle class="st1" cx="19.8" cy="84" r="1.3"/>
<line class="st2" x1="19.8" y1="84" x2="18.5" y2="85.4"/>
<circle class="st1" cx="18.5" cy="85.4" r="1.3"/>
<line class="st2" x1="18.5" y1="85.4" x2="18.5" y2="87.3"/>
<circle class="st1" cx="18.5" cy="87.3" r="1.3"/>
<line class="st2" x1="18.5" y1="87.3" x2="19.8" y2="88.7"/>
<circle class="st1" cx="40.7" cy="88.7" r="1.3"/>
<line class="st2" x1="40.7" y1="88.7" x2="42.7" y2="88.7"/>
<circle class="st1" cx="42.7" cy="88.7" r="1.3"/>
<line class="st2" x1="42.7" y1="88.7" x2="44.1" y2="87.3"/>
<circle class="st1" cx="44.1" cy="87.3" r="1.3"/>
<line class="st2" x1="44.1" y1="87.3" x2="44.1" y2="85.4"/>
<circle class="st1" cx="44.1" cy="85.4" r="1.3"/>
<line class="st2" x1="44.1" y1="85.4" x2="42.7" y2="84"/>
<circle class="st1" cx="42.7" cy="84" r="1.3"/>
<line class="st2" x1="42.7" y1="84" x2="40.7" y2="84"/>
<circle class="st1" cx="40.7" cy="84" r="1.3"/>
<line class="st2" x1="40.7" y1="84" x2="39.3" y2="85.4"/>
<circle class="st1" cx="39.3" cy="85.4" r="1.3"/>
<line class="st2" x1="39.3" y1="85.4" x2="39.3" y2="87.3"/>
<circle class="st1" cx="39.3" cy="87.3" r="1.3"/>
<line class="st2" x1="39.3" y1="87.3" x2="40.7" y2="88.7"/>
<circle class="st1" cx="15.2" cy="88.2" r="1.3"/>
<line class="st2" x1="15.2" y1="88.2" x2="16.7" y2="88.2"/>
<circle class="st1" cx="16.7" cy="88.2" r="1.3"/>
<line class="st2" x1="16.7" y1="88.2" x2="17.7" y2="87.1"/>
<circle class="st1" cx="17.7" cy="87.1" r="1.3"/>
<line class="st2" x1="17.7" y1="87.1" x2="17.7" y2="85.6"/>
<circle class="st1" cx="17.7" cy="85.6" r="1.3"/>
<line class="st2" x1="17.7" y1="85.6" x2="16.7" y2="84.5"/>
<circle class="st1" cx="16.7" cy="84.5" r="1.3"/>
<line class="st2" x1="16.7" y1="84.5" x2="15.2" y2="84.5"/>
<circle class="st1" cx="15.2" cy="84.5" r="1.3"/>
<line class="st2" x1="15.2" y1="84.5" x2="14.1" y2="85.6"/>
<circle class="st1" cx="14.1" cy="85.6" r="1.3"/>
<line class="st2" x1="14.1" y1="85.6" x2="14.1" y2="87.1"/>
<circle class="st1" cx="14.1" cy="87.1" r="1.3"/>
<line class="st2" x1="14.1" y1="87.1" x2="15.2" y2="88.2"/>
<polygon class="st1" points="60.4,80.4 59,80.4 59,77.8 60.3,76.6 60.3,71.6 57.3,68.7 59,67 59,63.5 60.4,63.5 "/>
<circle class="st1" cx="60.4" cy="80.4" r="1.3"/>
<line class="st2" x1="60.4" y1="80.4" x2="59" y2="80.4"/>
<circle class="st1" cx="59" cy="80.4" r="1.3"/>
<line class="st2" x1="59" y1="80.4" x2="59" y2="77.8"/>
<circle class="st1" cx="59" cy="77.8" r="1.3"/>
<line class="st2" x1="59" y1="77.8" x2="60.3" y2="76.6"/>
<circle class="st1" cx="60.3" cy="76.6" r="1.3"/>
<line class="st2" x1="60.3" y1="76.6" x2="60.3" y2="71.6"/>
<circle class="st1" cx="60.3" cy="71.6" r="1.3"/>
<line class="st2" x1="60.3" y1="71.6" x2="57.3" y2="68.7"/>
<circle class="st1" cx="57.3" cy="68.7" r="1.3"/>
<line class="st2" x1="57.3" y1="68.7" x2="59" y2="67"/>
<circle class="st1" cx="59" cy="67" r="1.3"/>
<line class="st2" x1="59" y1="67" x2="59" y2="63.5"/>
<circle class="st1" cx="59" cy="63.5" r="1.3"/>
<line class="st2" x1="59" y1="63.5" x2="60.4" y2="63.5"/>
<circle class="st1" cx="60.4" cy="63.5" r="1.3"/>
<line class="st2" x1="60.4" y1="63.5" x2="60.4" y2="80.4"/>
<polygon class="st1" points="51.5,20.1 14.9,20.1 14.9,11.5 43,11.5 "/>
<circle class="st1" cx="51.5" cy="20.1" r="1.3"/>
<line class="st2" x1="51.5" y1="20.1" x2="14.9" y2="20.1"/>
<circle class="st1" cx="14.9" cy="20.1" r="1.3"/>
<line class="st2" x1="14.9" y1="20.1" x2="14.9" y2="11.5"/>
<circle class="st1" cx="14.9" cy="11.5" r="1.3"/>
<line class="st2" x1="14.9" y1="11.5" x2="43" y2="11.5"/>
<circle class="st1" cx="43" cy="11.5" r="1.3"/>
<line class="st2" x1="43" y1="11.5" x2="51.5" y2="20.1"/>
<polygon class="st1" points="54.4,22.9 54.4,23.5 52.6,23.5 52.6,21.1 "/>
<circle class="st1" cx="54.4" cy="22.9" r="1.3"/>
<line class="st2" x1="54.4" y1="22.9" x2="54.4" y2="23.5"/>
<circle class="st1" cx="54.4" cy="23.5" r="1.3"/>
<line class="st2" x1="54.4" y1="23.5" x2="52.6" y2="23.5"/>
<circle class="st1" cx="52.6" cy="23.5" r="1.3"/>
<line class="st2" x1="52.6" y1="23.5" x2="52.6" y2="21.1"/>
<circle class="st1" cx="52.6" cy="21.1" r="1.3"/>
<line class="st2" x1="52.6" y1="21.1" x2="54.4" y2="22.9"/>
<polygon class="st1" points="11.4,31.7 10.8,31.7 9.4,33.2 9.4,35.1 9.7,35.3 7.9,35.3 7.9,21.3 9,20.3 11.4,20.3 "/>
<circle class="st1" cx="11.4" cy="31.7" r="1.3"/>
<line class="st2" x1="11.4" y1="31.7" x2="10.8" y2="31.7"/>
<circle class="st1" cx="10.8" cy="31.7" r="1.3"/>
<line class="st2" x1="10.8" y1="31.7" x2="9.4" y2="33.2"/>
<circle class="st1" cx="9.4" cy="33.2" r="1.3"/>
<line class="st2" x1="9.4" y1="33.2" x2="9.4" y2="35.1"/>
<circle class="st1" cx="9.4" cy="35.1" r="1.3"/>
<line class="st2" x1="9.4" y1="35.1" x2="9.7" y2="35.3"/>
<circle class="st1" cx="9.7" cy="35.3" r="1.3"/>
<line class="st2" x1="9.7" y1="35.3" x2="7.9" y2="35.3"/>
<circle class="st1" cx="7.9" cy="35.3" r="1.3"/>
<line class="st2" x1="7.9" y1="35.3" x2="7.9" y2="21.3"/>
<circle class="st1" cx="7.9" cy="21.3" r="1.3"/>
<line class="st2" x1="7.9" y1="21.3" x2="9" y2="20.3"/>
<circle class="st1" cx="9" cy="20.3" r="1.3"/>
<line class="st2" x1="9" y1="20.3" x2="11.4" y2="20.3"/>
<circle class="st1" cx="11.4" cy="20.3" r="1.3"/>
<line class="st2" x1="11.4" y1="20.3" x2="11.4" y2="31.7"/>
<polygon class="st1" points="18.5,36.8 18.5,41.3 17.8,42 17.8,35.3 14,35.3 14.2,35.1 14.2,33.2 13.4,32.4 18.5,32.4 "/>
<circle class="st1" cx="18.5" cy="36.8" r="1.3"/>
<line class="st2" x1="18.5" y1="36.8" x2="18.5" y2="41.3"/>
<circle class="st1" cx="18.5" cy="41.3" r="1.3"/>
<line class="st2" x1="18.5" y1="41.3" x2="17.8" y2="42"/>
<circle class="st1" cx="17.8" cy="42" r="1.3"/>
<line class="st2" x1="17.8" y1="42" x2="17.8" y2="35.3"/>
<circle class="st1" cx="17.8" cy="35.3" r="1.3"/>
<line class="st2" x1="17.8" y1="35.3" x2="14" y2="35.3"/>
<circle class="st1" cx="14" cy="35.3" r="1.3"/>
<line class="st2" x1="14" y1="35.3" x2="14.2" y2="35.1"/>
<circle class="st1" cx="14.2" cy="35.1" r="1.3"/>
<line class="st2" x1="14.2" y1="35.1" x2="14.2" y2="33.2"/>
<circle class="st1" cx="14.2" cy="33.2" r="1.3"/>
<line class="st2" x1="14.2" y1="33.2" x2="13.4" y2="32.4"/>
<circle class="st1" cx="13.4" cy="32.4" r="1.3"/>
<line class="st2" x1="13.4" y1="32.4" x2="18.5" y2="32.4"/>
<circle class="st1" cx="18.5" cy="32.4" r="1.3"/>
<line class="st2" x1="18.5" y1="32.4" x2="18.5" y2="36.8"/>
<polygon class="st1" points="54.4,42.6 49.8,38 38.1,38 43.7,32.4 52.6,32.4 52.6,28.9 54.4,28.9 "/>
<circle class="st1" cx="54.4" cy="42.6" r="1.3"/>
<line class="st2" x1="54.4" y1="42.6" x2="49.8" y2="38"/>
<circle class="st1" cx="49.8" cy="38" r="1.3"/>
<line class="st2" x1="49.8" y1="38" x2="38.1" y2="38"/>
<circle class="st1" cx="38.1" cy="38" r="1.3"/>
<line class="st2" x1="38.1" y1="38" x2="43.7" y2="32.4"/>
<circle class="st1" cx="43.7" cy="32.4" r="1.3"/>
<line class="st2" x1="43.7" y1="32.4" x2="52.6" y2="32.4"/>
<circle class="st1" cx="52.6" cy="32.4" r="1.3"/>
<line class="st2" x1="52.6" y1="32.4" x2="52.6" y2="28.9"/>
<circle class="st1" cx="52.6" cy="28.9" r="1.3"/>
<line class="st2" x1="52.6" y1="28.9" x2="54.4" y2="28.9"/>
<circle class="st1" cx="54.4" cy="28.9" r="1.3"/>
<line class="st2" x1="54.4" y1="28.9" x2="54.4" y2="42.6"/>
<polygon class="st1" points="45.1,48.4 46,49.3 45.1,49.3 42.2,52.2 42.2,54.6 37.8,50.2 26.8,50.2 26.8,49 26.6,48.8 30.4,48.8 
	30.4,47.5 45.1,47.5 "/>
<circle class="st1" cx="45.1" cy="48.4" r="1.3"/>
<line class="st2" x1="45.1" y1="48.4" x2="46" y2="49.3"/>
<circle class="st1" cx="46" cy="49.3" r="1.3"/>
<line class="st2" x1="46" y1="49.3" x2="45.1" y2="49.3"/>
<circle class="st1" cx="45.1" cy="49.3" r="1.3"/>
<line class="st2" x1="45.1" y1="49.3" x2="42.2" y2="52.2"/>
<circle class="st1" cx="42.2" cy="52.2" r="1.3"/>
<line class="st2" x1="42.2" y1="52.2" x2="42.2" y2="54.6"/>
<circle class="st1" cx="42.2" cy="54.6" r="1.3"/>
<line class="st2" x1="42.2" y1="54.6" x2="37.8" y2="50.2"/>
<circle class="st1" cx="37.8" cy="50.2" r="1.3"/>
<line class="st2" x1="37.8" y1="50.2" x2="26.8" y2="50.2"/>
<circle class="st1" cx="26.8" cy="50.2" r="1.3"/>
<line class="st2" x1="26.8" y1="50.2" x2="26.8" y2="49"/>
<circle class="st1" cx="26.8" cy="49" r="1.3"/>
<line class="st2" x1="26.8" y1="49" x2="26.6" y2="48.8"/>
<circle class="st1" cx="26.6" cy="48.8" r="1.3"/>
<line class="st2" x1="26.6" y1="48.8" x2="30.4" y2="48.8"/>
<circle class="st1" cx="30.4" cy="48.8" r="1.3"/>
<line class="st2" x1="30.4" y1="48.8" x2="30.4" y2="47.5"/>
<circle class="st1" cx="30.4" cy="47.5" r="1.3"/>
<line class="st2" x1="30.4" y1="47.5" x2="45.1" y2="47.5"/>
<circle class="st1" cx="45.1" cy="47.5" r="1.3"/>
<line class="st2" x1="45.1" y1="47.5" x2="45.1" y2="48.4"/>
<circle class="st1" cx="11.8" cy="34.1" r="0.3"/>
<line class="st4" x1="9.4" y1="34.1" x2="11.8" y2="34.1"/>
<circle class="st1" cx="11.8" cy="34.1" r="0.3"/>
<line class="st4" x1="14.2" y1="34.1" x2="11.8" y2="34.1"/>
<circle class="st1" cx="20.8" cy="86.3" r="0.3"/>
<line class="st4" x1="18.5" y1="86.3" x2="20.8" y2="86.3"/>
<circle class="st1" cx="20.8" cy="86.3" r="0.3"/>
<line class="st4" x1="23.2" y1="86.3" x2="20.8" y2="86.3"/>
<circle class="st1" cx="20.8" cy="86.3" r="0.3"/>
<line class="st4" x1="20.8" y1="88.7" x2="20.8" y2="86.3"/>
<circle class="st1" cx="20.8" cy="86.3" r="0.3"/>
<line class="st4" x1="20.8" y1="84" x2="20.8" y2="86.3"/>
<circle class="st1" cx="41.7" cy="86.3" r="0.3"/>
<line class="st4" x1="39.3" y1="86.3" x2="41.7" y2="86.3"/>
<circle class="st1" cx="41.7" cy="86.3" r="0.3"/>
<line class="st4" x1="44.1" y1="86.3" x2="41.7" y2="86.3"/>
<circle class="st1" cx="41.7" cy="86.3" r="0.3"/>
<line class="st4" x1="41.7" y1="88.7" x2="41.7" y2="86.3"/>
<circle class="st1" cx="41.7" cy="86.3" r="0.3"/>
<line class="st4" x1="41.7" y1="84" x2="41.7" y2="86.3"/>
<circle class="st1" cx="53.6" cy="26.2" r="0.3"/>
<line class="st4" x1="53.6" y1="28.9" x2="53.6" y2="26.2"/>
<circle class="st1" cx="53.6" cy="26.2" r="0.3"/>
<line class="st4" x1="53.6" y1="23.5" x2="53.6" y2="26.2"/>
<circle class="st1" cx="24.4" cy="50" r="0.3"/>
<line class="st4" x1="26.8" y1="50" x2="24.4" y2="50"/>
<rect x="9.3" y="38.8" width="5" height="5"/>
<circle class="st3" cx="11.8" cy="41.3" r="0.5"/>
<rect x="9.3" y="31.6" width="5" height="5"/>
<circle class="st3" cx="11.8" cy="34.1" r="0.5"/>
<rect x="3.9" y="83.8" width="5" height="5"/>
<circle class="st3" cx="6.4" cy="86.3" r="0.5"/>
<rect x="18.3" y="83.8" width="5" height="5"/>
<circle class="st3" cx="20.8" cy="86.3" r="0.5"/>
<rect x="53.6" y="83.8" width="5" height="5"/>
<circle class="st3" cx="56.1" cy="86.3" r="0.5"/>
<rect x="39.2" y="83.8" width="5" height="5"/>
<circle class="st3" cx="41.7" cy="86.3" r="0.5"/>
<rect x="22.8" y="67.8" width="5.4" height="5.4"/>
<circle class="st3" cx="25.5" cy="70.5" r="0.9"/>
<rect x="30" y="67.8" width="5.4" height="5.4"/>
<circle class="st3" cx="32.7" cy="70.5" r="0.9"/>
<rect x="37.2" y="67.8" width="5.4" height="5.4"/>
<circle class="st3" cx="39.9" cy="70.5" r="0.9"/>
<rect x="44.4" y="67.8" width="5.4" height="5.4"/>
<circle class="st3" cx="47.1" cy="70.5" r="0.9"/>
<rect x="22.8" y="60.6" width="5.4" height="5.4"/>
<circle class="st3" cx="25.5" cy="63.3" r="0.9"/>
<rect x="30" y="60.6" width="5.4" height="5.4"/>
<circle class="st3" cx="32.7" cy="63.3" r="0.9"/>
<rect x="37.2" y="60.6" width="5.4" height="5.4"/>
<circle class="st3" cx="39.9" cy="63.3" r="0.9"/>
<rect x="44.4" y="60.6" width="5.4" height="5.4"/>
<circle class="st3" cx="47.1" cy="63.3" r="0.9"/>
<rect x="14.9" y="23.5" width="5.4" height="5.4"/>
<circle class="st3" cx="17.6" cy="26.2" r="0.9"/>
<rect x="22.1" y="23.5" width="5.4" height="5.4"/>
<circle class="st3" cx="24.8" cy="26.2" r="0.9"/>
<rect x="29.3" y="23.5" width="5.4" height="5.4"/>
<circle class="st3" cx="32" cy="26.2" r="0.9"/>
<rect x="36.5" y="23.5" width="5.4" height="5.4"/>
<circle class="st3" cx="39.2" cy="26.2" r="0.9"/>
<rect x="43.7" y="23.5" width="5.4" height="5.4"/>
<circle class="st3" cx="46.4" cy="26.2" r="0.9"/>
<rect x="50.9" y="23.5" width="5.4" height="5.4"/>
<circle class="st3" cx="53.6" cy="26.2" r="0.9"/>
<rect x="5.7" y="3.9" width="5.7" height="5.7"/>
<circle class="st3" cx="8.6" cy="6.8" r="0.9"/>
<rect x="5.7" y="11.1" width="5.7" height="5.7"/>
<circle class="st3" cx="8.6" cy="14" r="0.9"/>
<circle class="st1" cx="17.9" cy="73.7" r="2.5"/>
<circle class="st3" cx="17.9" cy="73.7" r="0.9"/>
<circle class="st1" cx="17.9" cy="48.5" r="2.5"/>
<circle class="st3" cx="17.9" cy="48.5" r="0.9"/>
<circle class="st1" cx="54.3" cy="48.9" r="2.5"/>
<circle class="st3" cx="54.3" cy="48.9" r="0.9"/>
<circle class="st1" cx="54.3" cy="74.1" r="2.5"/>
<circle class="st3" cx="54.3" cy="74.1" r="0.9"/>
<circle class="st1" cx="11.8" cy="48.5" r="2.5"/>
<circle class="st3" cx="11.8" cy="48.5" r="0.9"/>
<circle class="st1" cx="11.8" cy="73.7" r="2.5"/>
<circle class="st3" cx="11.8" cy="73.7" r="0.9"/>
<rect x="21.9" y="33.1" width="5" height="5"/>
<circle class="st3" cx="24.4" cy="35.6" r="0.5"/>
<rect x="21.9" y="40.3" width="5" height="5"/>
<circle class="st3" cx="24.4" cy="42.8" r="0.5"/>
<rect x="21.9" y="47.5" width="5" height="5"/>
<circle class="st3" cx="24.4" cy="50" r="0.5"/>
<rect x="0.3" y="0.3" class="st5" width="61.9" height="97.2"/>
</svg>
