<?xml version="1.0" encoding="utf-8"?>
<!-- Generator: Adobe Illustrator 21.1.0, SVG Export Plug-In . SVG Version: 6.00 Build 0)  -->
<svg version="1.1" id="Capa_1" xmlns="http://www.w3.org/2000/svg" xmlns:xlink="http://www.w3.org/1999/xlink" x="0px" y="0px"
	 width="62.5px" height="97.8px" viewBox="0 0 62.5 97.8" style="enable-background:new 0 0 62.5 97.8;" xml:space="preserve">
<style type="text/css">
	.st0{fill:none;stroke:#000000;stroke-width:2.5795;stroke-linecap:round;stroke-linejoin:bevel;stroke-miterlimit:10;}
	.st1{fill:#FFFFFF;}
	.st2{fill:none;stroke:#000000;stroke-width:0.7087;stroke-linecap:round;stroke-linejoin:bevel;stroke-miterlimit:10;}
	.st3{fill:none;stroke:#000000;stroke-width:0.5669;stroke-linecap:round;stroke-linejoin:bevel;stroke-miterlimit:10;}
</style>
<circle cx="54.3" cy="49.3" r="1.3"/>
<line class="st0" x1="54.3" y1="49.3" x2="54.3" y2="48.9"/>
<line class="st0" x1="24.4" y1="35.6" x2="33.8" y2="35.6"/>
<circle cx="33.8" cy="35.6" r="1.3"/>
<line class="st0" x1="33.8" y1="35.6" x2="39.2" y2="30.2"/>
<circle cx="39.2" cy="30.2" r="1.3"/>
<line class="st0" x1="39.2" y1="30.2" x2="39.2" y2="26.2"/>
<line class="st0" x1="18" y1="73.7" x2="19.6" y2="75.4"/>
<circle cx="19.6" cy="75.4" r="1.3"/>
<line class="st0" x1="19.6" y1="75.4" x2="28.9" y2="75.4"/>
<circle cx="28.9" cy="75.4" r="1.3"/>
<line class="st0" x1="28.9" y1="75.4" x2="32.7" y2="71.6"/>
<circle cx="32.7" cy="71.6" r="1.3"/>
<line class="st0" x1="32.7" y1="71.6" x2="32.7" y2="70.5"/>
<line class="st0" x1="24.4" y1="50" x2="44.7" y2="50"/>
<circle cx="44.7" cy="50" r="1.3"/>
<line class="st0" x1="44.7" y1="50" x2="46.7" y2="48"/>
<circle cx="32.7" cy="60.1" r="1.3"/>
<line class="st0" x1="32.7" y1="60.1" x2="32.7" y2="63.3"/>
<circle cx="32.7" cy="60.1" r="1.3"/>
<circle cx="32.7" cy="59.7" r="1.3"/>
<line class="st0" x1="32.7" y1="60.1" x2="32.7" y2="59.7"/>
<circle cx="32.7" cy="59.7" r="1.3"/>
<line class="st0" x1="32.7" y1="59.7" x2="31.3" y2="58.3"/>
<circle cx="31.3" cy="58.3" r="1.3"/>
<line class="st0" x1="31.3" y1="58.3" x2="15.1" y2="58.3"/>
<circle cx="15.1" cy="58.3" r="1.3"/>
<line class="st0" x1="15.1" y1="58.3" x2="11.5" y2="61.9"/>
<circle cx="11.5" cy="61.9" r="1.3"/>
<line class="st0" x1="11.5" y1="61.9" x2="11.5" y2="73.7"/>
<line class="st0" x1="11.5" y1="48.5" x2="11.5" y2="41.7"/>
<circle cx="11.5" cy="41.7" r="1.3"/>
<line class="st0" x1="11.5" y1="41.7" x2="11.8" y2="41.3"/>
<line class="st0" x1="11.8" y1="34.1" x2="10.4" y2="34.1"/>
<circle cx="10.4" cy="34.1" r="1.3"/>
<line class="st0" x1="10.4" y1="34.1" x2="6.9" y2="37.6"/>
<circle cx="6.9" cy="37.6" r="1.3"/>
<line class="st0" x1="6.9" y1="37.6" x2="6.9" y2="52.2"/>
<circle cx="6.9" cy="52.2" r="1.3"/>
<line class="st0" x1="6.9" y1="52.2" x2="7.4" y2="52.7"/>
<line class="st0" x1="15.8" y1="63.3" x2="25.5" y2="63.3"/>
<circle cx="6.4" cy="59.9" r="1.3"/>
<line class="st0" x1="39.9" y1="63.3" x2="39.9" y2="57.5"/>
<circle cx="39.9" cy="57.5" r="1.3"/>
<line class="st0" x1="39.9" y1="57.5" x2="37.6" y2="55.2"/>
<circle cx="37.6" cy="55.2" r="1.3"/>
<line class="st0" x1="37.6" y1="55.2" x2="37.4" y2="55"/>
<circle cx="37.4" cy="55" r="1.3"/>
<line class="st0" x1="37.4" y1="55" x2="11.4" y2="55"/>
<circle cx="11.4" cy="55" r="1.3"/>
<line class="st0" x1="11.4" y1="55" x2="6.4" y2="59.9"/>
<circle cx="21.9" cy="86.4" r="1.3"/>
<line class="st0" x1="20.8" y1="86.4" x2="21.9" y2="86.4"/>
<line class="st0" x1="15.8" y1="86.4" x2="20.8" y2="86.4"/>
<circle cx="6.4" cy="59.9" r="1.3"/>
<path class="st0" d="M6.4,59.9"/>
<circle cx="6.4" cy="59.9" r="1.3"/>
<line class="st0" x1="6.4" y1="59.9" x2="6.4" y2="86.4"/>
<circle cx="21.9" cy="86.4" r="1.3"/>
<line class="st0" x1="21.9" y1="86.4" x2="41.7" y2="86.4"/>
<line class="st0" x1="18" y1="48.5" x2="23.7" y2="42.8"/>
<circle cx="23.7" cy="42.8" r="1.3"/>
<line class="st0" x1="23.7" y1="42.8" x2="24.4" y2="42.8"/>
<line class="st0" x1="11.8" y1="34.1" x2="11.8" y2="22.3"/>
<circle cx="11.8" cy="22.3" r="1.3"/>
<line class="st0" x1="11.8" y1="22.3" x2="14.4" y2="19.7"/>
<circle cx="14.4" cy="19.7" r="1.3"/>
<line class="st0" x1="14.4" y1="19.7" x2="49.6" y2="19.7"/>
<circle cx="49.6" cy="19.7" r="1.3"/>
<line class="st0" x1="49.6" y1="19.7" x2="53.6" y2="23.7"/>
<circle cx="53.6" cy="23.7" r="1.3"/>
<line class="st0" x1="53.6" y1="23.7" x2="53.6" y2="26.2"/>
<circle cx="32.7" cy="59.7" r="1.3"/>
<line class="st0" x1="32.7" y1="59.3" x2="32.7" y2="59.7"/>
<circle cx="54.3" cy="49.3" r="1.3"/>
<line class="st0" x1="24.4" y1="42.8" x2="47.8" y2="42.8"/>
<circle cx="47.8" cy="42.8" r="1.3"/>
<line class="st0" x1="47.8" y1="42.8" x2="54.3" y2="49.3"/>
<circle cx="54.3" cy="49.3" r="1.3"/>
<line class="st0" x1="47.1" y1="70.5" x2="48.8" y2="70.5"/>
<circle cx="48.8" cy="70.5" r="1.3"/>
<line class="st0" x1="48.8" y1="70.5" x2="54.3" y2="65"/>
<circle cx="54.3" cy="65" r="1.3"/>
<line class="st0" x1="54.3" y1="65" x2="54.3" y2="49.3"/>
<line class="st0" x1="39.9" y1="70.5" x2="39.9" y2="72.2"/>
<circle cx="39.9" cy="72.2" r="1.3"/>
<line class="st0" x1="39.9" y1="72.2" x2="43.1" y2="75.3"/>
<circle cx="43.1" cy="75.3" r="1.3"/>
<line class="st0" x1="43.1" y1="75.3" x2="53.1" y2="75.3"/>
<circle cx="53.1" cy="75.3" r="1.3"/>
<line class="st0" x1="53.1" y1="75.3" x2="54.3" y2="74.1"/>
<line class="st0" x1="54.3" y1="74.1" x2="54.3" y2="84.9"/>
<circle cx="54.3" cy="84.9" r="1.3"/>
<line class="st0" x1="54.3" y1="84.9" x2="55.7" y2="86.4"/>
<circle cx="55.7" cy="86.4" r="1.3"/>
<line class="st0" x1="55.7" y1="86.4" x2="56.1" y2="86.4"/>
<line class="st0" x1="47.1" y1="63.3" x2="47.1" y2="55.9"/>
<circle cx="47.1" cy="55.9" r="1.3"/>
<line class="st0" x1="47.1" y1="55.9" x2="45.3" y2="54.1"/>
<line class="st0" x1="19.7" y1="66.9" x2="23.3" y2="70.5"/>
<circle cx="23.3" cy="70.5" r="1.3"/>
<line class="st0" x1="23.3" y1="70.5" x2="25.5" y2="70.5"/>
<line class="st0" x1="8.6" y1="6.8" x2="45.3" y2="6.8"/>
<circle cx="45.3" cy="6.8" r="1.3"/>
<line class="st0" x1="45.3" y1="6.8" x2="59" y2="20.5"/>
<circle cx="59" cy="20.5" r="1.3"/>
<line class="st0" x1="59" y1="20.5" x2="59" y2="58"/>
<circle cx="59" cy="58" r="1.3"/>
<line class="st0" x1="59" y1="58" x2="59.2" y2="58.2"/>
<circle cx="6.4" cy="59.9" r="1.3"/>
<line class="st0" x1="6.4" y1="59.9" x2="5.7" y2="59.9"/>
<circle cx="5.7" cy="59.9" r="1.3"/>
<line class="st0" x1="5.7" y1="59.9" x2="3.2" y2="57.4"/>
<circle cx="3.2" cy="57.4" r="1.3"/>
<line class="st0" x1="3.2" y1="57.4" x2="3.2" y2="19.4"/>
<circle cx="3.2" cy="19.4" r="1.3"/>
<line class="st0" x1="3.2" y1="19.4" x2="8.6" y2="14"/>
<circle cx="7.4" cy="52.7" r="1.4"/>
<circle class="st1" cx="7.4" cy="52.7" r="0.5"/>
<circle cx="15.8" cy="63.3" r="1.4"/>
<circle class="st1" cx="15.8" cy="63.3" r="0.5"/>
<circle cx="46.7" cy="48" r="1.4"/>
<circle class="st1" cx="46.7" cy="48" r="0.5"/>
<circle cx="15.8" cy="86.4" r="1.4"/>
<circle class="st1" cx="15.8" cy="86.4" r="0.5"/>
<circle cx="15.8" cy="86.4" r="1.4"/>
<circle class="st1" cx="15.8" cy="86.4" r="0.5"/>
<circle cx="59.2" cy="58.2" r="1.4"/>
<circle class="st1" cx="59.2" cy="58.2" r="0.5"/>
<circle cx="32.7" cy="59.3" r="1.4"/>
<circle class="st1" cx="32.7" cy="59.3" r="0.5"/>
<circle cx="45.3" cy="54.1" r="1.4"/>
<circle class="st1" cx="45.3" cy="54.1" r="0.5"/>
<circle cx="19.7" cy="66.9" r="1.4"/>
<circle class="st1" cx="19.7" cy="66.9" r="0.5"/>
<polygon points="2.3,13.1 2.3,13.6 2.1,13.8 2.1,2.1 2.3,2.1 "/>
<circle cx="2.3" cy="13.1" r="1.3"/>
<line class="st0" x1="2.3" y1="13.1" x2="2.3" y2="13.6"/>
<circle cx="2.3" cy="13.6" r="1.3"/>
<line class="st0" x1="2.3" y1="13.6" x2="2.1" y2="13.8"/>
<circle cx="2.1" cy="13.8" r="1.3"/>
<line class="st0" x1="2.1" y1="13.8" x2="2.1" y2="2.1"/>
<circle cx="2.1" cy="2.1" r="1.3"/>
<line class="st0" x1="2.1" y1="2.1" x2="2.3" y2="2.1"/>
<circle cx="2.3" cy="2.1" r="1.3"/>
<line class="st0" x1="2.3" y1="2.1" x2="2.3" y2="13.1"/>
<polygon points="60.4,15.2 47.4,2.1 60.4,2.1 "/>
<circle cx="60.4" cy="15.2" r="1.3"/>
<line class="st0" x1="60.4" y1="15.2" x2="47.4" y2="2.1"/>
<circle cx="47.4" cy="2.1" r="1.3"/>
<line class="st0" x1="47.4" y1="2.1" x2="60.4" y2="2.1"/>
<circle cx="60.4" cy="2.1" r="1.3"/>
<line class="st0" x1="60.4" y1="2.1" x2="60.4" y2="15.2"/>
<path d="M17.6,85.6v1.5l-1.1,1.1H15l-1-1.1v-1.5l1-1.1h1.6L17.6,85.6z M40.7,88.7h2l1.4-1.4v-2L42.7,84h-2l-1.4,1.4v2L40.7,88.7z
	 M19.9,88.7h2l1.4-1.4v-2L21.8,84h-2l-1.4,1.4v2L19.9,88.7z M39.7,78.7l1.4,1.4h8.5v6.8l0.6,0.6v4.9h10.3v3.4H2.1v-3.4h10.3v-12
	h-1.2v-0.7h2.7l0.8-0.8l0.8,0.8h1.7l0.5,0.5h13.2l3.7-3.7h3L39.7,78.7z"/>
<circle cx="39.7" cy="78.7" r="1.3"/>
<line class="st0" x1="39.7" y1="78.7" x2="41.1" y2="80.1"/>
<circle cx="41.1" cy="80.1" r="1.3"/>
<line class="st0" x1="41.1" y1="80.1" x2="49.6" y2="80.1"/>
<circle cx="49.6" cy="80.1" r="1.3"/>
<line class="st0" x1="49.6" y1="80.1" x2="49.6" y2="86.9"/>
<circle cx="49.6" cy="86.9" r="1.3"/>
<line class="st0" x1="49.6" y1="86.9" x2="50.1" y2="87.5"/>
<circle cx="50.1" cy="87.5" r="1.3"/>
<line class="st0" x1="50.1" y1="87.5" x2="50.1" y2="92.3"/>
<circle cx="50.1" cy="92.3" r="1.3"/>
<line class="st0" x1="50.1" y1="92.3" x2="60.4" y2="92.3"/>
<circle cx="60.4" cy="92.3" r="1.3"/>
<line class="st0" x1="60.4" y1="92.3" x2="60.4" y2="95.7"/>
<circle cx="60.4" cy="95.7" r="1.3"/>
<line class="st0" x1="60.4" y1="95.7" x2="2.1" y2="95.7"/>
<circle cx="2.1" cy="95.7" r="1.3"/>
<line class="st0" x1="2.1" y1="95.7" x2="2.1" y2="92.3"/>
<circle cx="2.1" cy="92.3" r="1.3"/>
<line class="st0" x1="2.1" y1="92.3" x2="12.4" y2="92.3"/>
<circle cx="12.4" cy="92.3" r="1.3"/>
<line class="st0" x1="12.4" y1="92.3" x2="12.4" y2="80.4"/>
<circle cx="12.4" cy="80.4" r="1.3"/>
<line class="st0" x1="12.4" y1="80.4" x2="11.2" y2="80.4"/>
<circle cx="11.2" cy="80.4" r="1.3"/>
<line class="st0" x1="11.2" y1="80.4" x2="11.2" y2="79.7"/>
<circle cx="11.2" cy="79.7" r="1.3"/>
<line class="st0" x1="11.2" y1="79.7" x2="13.9" y2="79.7"/>
<circle cx="13.9" cy="79.7" r="1.3"/>
<line class="st0" x1="13.9" y1="79.7" x2="14.7" y2="79"/>
<circle cx="14.7" cy="79" r="1.3"/>
<line class="st0" x1="14.7" y1="79" x2="15.5" y2="79.7"/>
<circle cx="15.5" cy="79.7" r="1.3"/>
<line class="st0" x1="15.5" y1="79.7" x2="17.2" y2="79.7"/>
<circle cx="17.2" cy="79.7" r="1.3"/>
<line class="st0" x1="17.2" y1="79.7" x2="17.7" y2="80.2"/>
<circle cx="17.7" cy="80.2" r="1.3"/>
<line class="st0" x1="17.7" y1="80.2" x2="30.9" y2="80.2"/>
<circle cx="30.9" cy="80.2" r="1.3"/>
<line class="st0" x1="30.9" y1="80.2" x2="34.5" y2="76.5"/>
<circle cx="34.5" cy="76.5" r="1.3"/>
<line class="st0" x1="34.5" y1="76.5" x2="37.5" y2="76.5"/>
<circle cx="37.5" cy="76.5" r="1.3"/>
<line class="st0" x1="37.5" y1="76.5" x2="39.7" y2="78.7"/>
<circle cx="19.9" cy="88.7" r="1.3"/>
<line class="st0" x1="19.9" y1="88.7" x2="21.8" y2="88.7"/>
<circle cx="21.8" cy="88.7" r="1.3"/>
<line class="st0" x1="21.8" y1="88.7" x2="23.2" y2="87.3"/>
<circle cx="23.2" cy="87.3" r="1.3"/>
<line class="st0" x1="23.2" y1="87.3" x2="23.2" y2="85.4"/>
<circle cx="23.2" cy="85.4" r="1.3"/>
<line class="st0" x1="23.2" y1="85.4" x2="21.8" y2="84"/>
<circle cx="21.8" cy="84" r="1.3"/>
<line class="st0" x1="21.8" y1="84" x2="19.9" y2="84"/>
<circle cx="19.9" cy="84" r="1.3"/>
<line class="st0" x1="19.9" y1="84" x2="18.4" y2="85.4"/>
<circle cx="18.4" cy="85.4" r="1.3"/>
<line class="st0" x1="18.4" y1="85.4" x2="18.4" y2="87.3"/>
<circle cx="18.4" cy="87.3" r="1.3"/>
<line class="st0" x1="18.4" y1="87.3" x2="19.9" y2="88.7"/>
<circle cx="40.7" cy="88.7" r="1.3"/>
<line class="st0" x1="40.7" y1="88.7" x2="42.7" y2="88.7"/>
<circle cx="42.7" cy="88.7" r="1.3"/>
<line class="st0" x1="42.7" y1="88.7" x2="44.1" y2="87.3"/>
<circle cx="44.1" cy="87.3" r="1.3"/>
<line class="st0" x1="44.1" y1="87.3" x2="44.1" y2="85.4"/>
<circle cx="44.1" cy="85.4" r="1.3"/>
<line class="st0" x1="44.1" y1="85.4" x2="42.7" y2="84"/>
<circle cx="42.7" cy="84" r="1.3"/>
<line class="st0" x1="42.7" y1="84" x2="40.7" y2="84"/>
<circle cx="40.7" cy="84" r="1.3"/>
<line class="st0" x1="40.7" y1="84" x2="39.3" y2="85.4"/>
<circle cx="39.3" cy="85.4" r="1.3"/>
<line class="st0" x1="39.3" y1="85.4" x2="39.3" y2="87.3"/>
<circle cx="39.3" cy="87.3" r="1.3"/>
<line class="st0" x1="39.3" y1="87.3" x2="40.7" y2="88.7"/>
<circle cx="17.6" cy="85.6" r="1.3"/>
<line class="st0" x1="17.6" y1="85.6" x2="17.6" y2="87.1"/>
<circle cx="17.6" cy="87.1" r="1.3"/>
<line class="st0" x1="17.6" y1="87.1" x2="16.5" y2="88.2"/>
<circle cx="16.5" cy="88.2" r="1.3"/>
<line class="st0" x1="16.5" y1="88.2" x2="15" y2="88.2"/>
<circle cx="15" cy="88.2" r="1.3"/>
<line class="st0" x1="15" y1="88.2" x2="13.9" y2="87.1"/>
<circle cx="13.9" cy="87.1" r="1.3"/>
<line class="st0" x1="13.9" y1="87.1" x2="13.9" y2="85.6"/>
<circle cx="13.9" cy="85.6" r="1.3"/>
<line class="st0" x1="13.9" y1="85.6" x2="15" y2="84.5"/>
<circle cx="15" cy="84.5" r="1.3"/>
<line class="st0" x1="15" y1="84.5" x2="16.5" y2="84.5"/>
<circle cx="16.5" cy="84.5" r="1.3"/>
<line class="st0" x1="16.5" y1="84.5" x2="17.6" y2="85.6"/>
<polygon points="60.4,80.4 59.1,80.4 59.1,77.8 60.3,76.6 60.3,71.6 57.3,68.7 59.1,67 59.1,63.1 60.4,63.1 "/>
<circle cx="60.4" cy="80.4" r="1.3"/>
<line class="st0" x1="60.4" y1="80.4" x2="59.1" y2="80.4"/>
<circle cx="59.1" cy="80.4" r="1.3"/>
<line class="st0" x1="59.1" y1="80.4" x2="59.1" y2="77.8"/>
<circle cx="59.1" cy="77.8" r="1.3"/>
<line class="st0" x1="59.1" y1="77.8" x2="60.3" y2="76.6"/>
<circle cx="60.3" cy="76.6" r="1.3"/>
<line class="st0" x1="60.3" y1="76.6" x2="60.3" y2="71.6"/>
<circle cx="60.3" cy="71.6" r="1.3"/>
<line class="st0" x1="60.3" y1="71.6" x2="57.3" y2="68.7"/>
<circle cx="57.3" cy="68.7" r="1.3"/>
<line class="st0" x1="57.3" y1="68.7" x2="59.1" y2="67"/>
<circle cx="59.1" cy="67" r="1.3"/>
<line class="st0" x1="59.1" y1="67" x2="59.1" y2="63.1"/>
<circle cx="59.1" cy="63.1" r="1.3"/>
<line class="st0" x1="59.1" y1="63.1" x2="60.4" y2="63.1"/>
<circle cx="60.4" cy="63.1" r="1.3"/>
<line class="st0" x1="60.4" y1="63.1" x2="60.4" y2="80.4"/>
<polygon points="52.1,20.3 14.9,20.3 14.9,11.5 43.3,11.5 "/>
<circle cx="52.1" cy="20.3" r="1.3"/>
<line class="st0" x1="52.1" y1="20.3" x2="14.9" y2="20.3"/>
<circle cx="14.9" cy="20.3" r="1.3"/>
<line class="st0" x1="14.9" y1="20.3" x2="14.9" y2="11.5"/>
<circle cx="14.9" cy="11.5" r="1.3"/>
<line class="st0" x1="14.9" y1="11.5" x2="43.3" y2="11.5"/>
<circle cx="43.3" cy="11.5" r="1.3"/>
<line class="st0" x1="43.3" y1="11.5" x2="52.1" y2="20.3"/>
<polygon points="54.2,22.4 54.2,23.9 52.6,23.9 52.4,24.1 52.4,20.6 "/>
<circle cx="54.2" cy="22.4" r="1.3"/>
<line class="st0" x1="54.2" y1="22.4" x2="54.2" y2="23.9"/>
<circle cx="54.2" cy="23.9" r="1.3"/>
<line class="st0" x1="54.2" y1="23.9" x2="52.6" y2="23.9"/>
<circle cx="52.6" cy="23.9" r="1.3"/>
<line class="st0" x1="52.6" y1="23.9" x2="52.4" y2="24.1"/>
<circle cx="52.4" cy="24.1" r="1.3"/>
<line class="st0" x1="52.4" y1="24.1" x2="52.4" y2="20.6"/>
<circle cx="52.4" cy="20.6" r="1.3"/>
<line class="st0" x1="52.4" y1="20.6" x2="54.2" y2="22.4"/>
<polygon points="11.6,31.8 10.8,31.8 9.5,33.2 9.5,35.1 9.7,35.4 8,35.4 8,21.4 9,20.3 11.6,20.3 "/>
<circle cx="11.6" cy="31.8" r="1.3"/>
<line class="st0" x1="11.6" y1="31.8" x2="10.8" y2="31.8"/>
<circle cx="10.8" cy="31.8" r="1.3"/>
<line class="st0" x1="10.8" y1="31.8" x2="9.5" y2="33.2"/>
<circle cx="9.5" cy="33.2" r="1.3"/>
<line class="st0" x1="9.5" y1="33.2" x2="9.5" y2="35.1"/>
<circle cx="9.5" cy="35.1" r="1.3"/>
<line class="st0" x1="9.5" y1="35.1" x2="9.7" y2="35.4"/>
<circle cx="9.7" cy="35.4" r="1.3"/>
<line class="st0" x1="9.7" y1="35.4" x2="8" y2="35.4"/>
<circle cx="8" cy="35.4" r="1.3"/>
<line class="st0" x1="8" y1="35.4" x2="8" y2="21.4"/>
<circle cx="8" cy="21.4" r="1.3"/>
<line class="st0" x1="8" y1="21.4" x2="9" y2="20.3"/>
<circle cx="9" cy="20.3" r="1.3"/>
<line class="st0" x1="9" y1="20.3" x2="11.6" y2="20.3"/>
<circle cx="11.6" cy="20.3" r="1.3"/>
<line class="st0" x1="11.6" y1="20.3" x2="11.6" y2="31.8"/>
<polygon points="18.4,36.8 18.4,41.3 17.8,42 17.8,35.4 14,35.4 14.2,35.1 14.2,33.2 13.3,32.2 18.4,32.2 "/>
<circle cx="18.4" cy="36.8" r="1.3"/>
<line class="st0" x1="18.4" y1="36.8" x2="18.4" y2="41.3"/>
<circle cx="18.4" cy="41.3" r="1.3"/>
<line class="st0" x1="18.4" y1="41.3" x2="17.8" y2="42"/>
<circle cx="17.8" cy="42" r="1.3"/>
<line class="st0" x1="17.8" y1="42" x2="17.8" y2="35.4"/>
<circle cx="17.8" cy="35.4" r="1.3"/>
<line class="st0" x1="17.8" y1="35.4" x2="14" y2="35.4"/>
<circle cx="14" cy="35.4" r="1.3"/>
<line class="st0" x1="14" y1="35.4" x2="14.2" y2="35.1"/>
<circle cx="14.2" cy="35.1" r="1.3"/>
<line class="st0" x1="14.2" y1="35.1" x2="14.2" y2="33.2"/>
<circle cx="14.2" cy="33.2" r="1.3"/>
<line class="st0" x1="14.2" y1="33.2" x2="13.3" y2="32.2"/>
<circle cx="13.3" cy="32.2" r="1.3"/>
<line class="st0" x1="13.3" y1="32.2" x2="18.4" y2="32.2"/>
<circle cx="18.4" cy="32.2" r="1.3"/>
<line class="st0" x1="18.4" y1="32.2" x2="18.4" y2="36.8"/>
<polygon points="52.6,28.6 54.2,28.6 54.2,42.5 49.8,38.1 38.1,38.1 43.9,32.2 52.4,32.2 52.4,28.4 "/>
<circle cx="52.6" cy="28.6" r="1.3"/>
<line class="st0" x1="52.6" y1="28.6" x2="54.2" y2="28.6"/>
<circle cx="54.2" cy="28.6" r="1.3"/>
<line class="st0" x1="54.2" y1="28.6" x2="54.2" y2="42.5"/>
<circle cx="54.2" cy="42.5" r="1.3"/>
<line class="st0" x1="54.2" y1="42.5" x2="49.8" y2="38.1"/>
<circle cx="49.8" cy="38.1" r="1.3"/>
<line class="st0" x1="49.8" y1="38.1" x2="38.1" y2="38.1"/>
<circle cx="38.1" cy="38.1" r="1.3"/>
<line class="st0" x1="38.1" y1="38.1" x2="43.9" y2="32.2"/>
<circle cx="43.9" cy="32.2" r="1.3"/>
<line class="st0" x1="43.9" y1="32.2" x2="52.4" y2="32.2"/>
<circle cx="52.4" cy="32.2" r="1.3"/>
<line class="st0" x1="52.4" y1="32.2" x2="52.4" y2="28.4"/>
<circle cx="52.4" cy="28.4" r="1.3"/>
<line class="st0" x1="52.4" y1="28.4" x2="52.6" y2="28.6"/>
<polygon points="48.4,50 48.4,50.2 47.7,49.6 47.8,49.5 "/>
<circle cx="48.4" cy="50" r="1.3"/>
<line class="st0" x1="48.4" y1="50" x2="48.4" y2="50.2"/>
<circle cx="48.4" cy="50.2" r="1.3"/>
<line class="st0" x1="48.4" y1="50.2" x2="47.7" y2="49.6"/>
<circle cx="47.7" cy="49.6" r="1.3"/>
<line class="st0" x1="47.7" y1="49.6" x2="47.8" y2="49.5"/>
<circle cx="47.8" cy="49.5" r="1.3"/>
<line class="st0" x1="47.8" y1="49.5" x2="48.4" y2="50"/>
<polygon points="44.8,48.8 45.3,49.2 43.3,49.2 40.8,51.7 39.4,50.2 26.8,50.2 26.8,49 26.6,48.8 30.4,48.8 30.4,47.5 44.8,47.5 "/>
<circle cx="44.8" cy="48.8" r="1.3"/>
<line class="st0" x1="44.8" y1="48.8" x2="45.3" y2="49.2"/>
<circle cx="45.3" cy="49.2" r="1.3"/>
<line class="st0" x1="45.3" y1="49.2" x2="43.3" y2="49.2"/>
<circle cx="43.3" cy="49.2" r="1.3"/>
<line class="st0" x1="43.3" y1="49.2" x2="40.8" y2="51.7"/>
<circle cx="40.8" cy="51.7" r="1.3"/>
<line class="st0" x1="40.8" y1="51.7" x2="39.4" y2="50.2"/>
<circle cx="39.4" cy="50.2" r="1.3"/>
<line class="st0" x1="39.4" y1="50.2" x2="26.8" y2="50.2"/>
<circle cx="26.8" cy="50.2" r="1.3"/>
<line class="st0" x1="26.8" y1="50.2" x2="26.8" y2="49"/>
<circle cx="26.8" cy="49" r="1.3"/>
<line class="st0" x1="26.8" y1="49" x2="26.6" y2="48.8"/>
<circle cx="26.6" cy="48.8" r="1.3"/>
<line class="st0" x1="26.6" y1="48.8" x2="30.4" y2="48.8"/>
<circle cx="30.4" cy="48.8" r="1.3"/>
<line class="st0" x1="30.4" y1="48.8" x2="30.4" y2="47.5"/>
<circle cx="30.4" cy="47.5" r="1.3"/>
<line class="st0" x1="30.4" y1="47.5" x2="44.8" y2="47.5"/>
<circle cx="44.8" cy="47.5" r="1.3"/>
<line class="st0" x1="44.8" y1="47.5" x2="44.8" y2="48.8"/>
<polygon points="23.2,63.4 22.8,63 23.2,63 "/>
<circle cx="23.2" cy="63.4" r="1.3"/>
<line class="st0" x1="23.2" y1="63.4" x2="22.8" y2="63"/>
<circle cx="22.8" cy="63" r="1.3"/>
<line class="st0" x1="22.8" y1="63" x2="23.2" y2="63"/>
<circle cx="23.2" cy="63" r="1.3"/>
<line class="st0" x1="23.2" y1="63" x2="23.2" y2="63.4"/>
<circle cx="11.8" cy="34.1" r="0.3"/>
<line class="st2" x1="9.5" y1="34.1" x2="11.8" y2="34.1"/>
<circle cx="11.8" cy="34.1" r="0.3"/>
<line class="st2" x1="14.2" y1="34.1" x2="11.8" y2="34.1"/>
<circle cx="20.8" cy="86.4" r="0.3"/>
<line class="st2" x1="18.4" y1="86.4" x2="20.8" y2="86.4"/>
<circle cx="20.8" cy="86.4" r="0.3"/>
<line class="st2" x1="23.2" y1="86.4" x2="20.8" y2="86.4"/>
<circle cx="20.8" cy="86.4" r="0.3"/>
<line class="st2" x1="20.8" y1="88.7" x2="20.8" y2="86.4"/>
<circle cx="20.8" cy="86.4" r="0.3"/>
<line class="st2" x1="20.8" y1="84" x2="20.8" y2="86.4"/>
<circle cx="41.7" cy="86.4" r="0.3"/>
<line class="st2" x1="39.3" y1="86.4" x2="41.7" y2="86.4"/>
<circle cx="41.7" cy="86.4" r="0.3"/>
<line class="st2" x1="44.1" y1="86.4" x2="41.7" y2="86.4"/>
<circle cx="41.7" cy="86.4" r="0.3"/>
<line class="st2" x1="41.7" y1="88.7" x2="41.7" y2="86.4"/>
<circle cx="41.7" cy="86.4" r="0.3"/>
<line class="st2" x1="41.7" y1="84" x2="41.7" y2="86.4"/>
<circle cx="25.5" cy="63.3" r="0.3"/>
<line class="st2" x1="23.2" y1="63.3" x2="25.5" y2="63.3"/>
<circle cx="53.6" cy="26.2" r="0.3"/>
<line class="st2" x1="53.6" y1="28.6" x2="53.6" y2="26.2"/>
<circle cx="53.6" cy="26.2" r="0.3"/>
<line class="st2" x1="53.6" y1="23.9" x2="53.6" y2="26.2"/>
<circle cx="24.4" cy="50" r="0.3"/>
<line class="st2" x1="26.8" y1="50" x2="24.4" y2="50"/>
<rect x="9.3" y="38.8" width="5" height="5"/>
<circle class="st1" cx="11.8" cy="41.3" r="0.5"/>
<rect x="9.3" y="31.6" width="5" height="5"/>
<circle class="st1" cx="11.8" cy="34.1" r="0.5"/>
<rect x="3.9" y="83.8" width="5" height="5"/>
<circle class="st1" cx="6.4" cy="86.4" r="0.5"/>
<rect x="18.3" y="83.8" width="5" height="5"/>
<circle class="st1" cx="20.8" cy="86.4" r="0.5"/>
<rect x="53.6" y="83.8" width="5" height="5"/>
<circle class="st1" cx="56.1" cy="86.4" r="0.5"/>
<rect x="39.2" y="83.8" width="5" height="5"/>
<circle class="st1" cx="41.7" cy="86.4" r="0.5"/>
<rect x="23" y="68" width="5" height="5"/>
<circle class="st1" cx="25.5" cy="70.5" r="0.5"/>
<rect x="30.2" y="68" width="5" height="5"/>
<circle class="st1" cx="32.7" cy="70.5" r="0.5"/>
<rect x="37.4" y="68" width="5" height="5"/>
<circle class="st1" cx="39.9" cy="70.5" r="0.5"/>
<rect x="44.6" y="68" width="5" height="5"/>
<circle class="st1" cx="47.1" cy="70.5" r="0.5"/>
<rect x="23" y="60.8" width="5" height="5"/>
<circle class="st1" cx="25.5" cy="63.3" r="0.5"/>
<rect x="30.2" y="60.8" width="5" height="5"/>
<circle class="st1" cx="32.7" cy="63.3" r="0.5"/>
<rect x="37.4" y="60.8" width="5" height="5"/>
<circle class="st1" cx="39.9" cy="63.3" r="0.5"/>
<rect x="44.6" y="60.8" width="5" height="5"/>
<circle class="st1" cx="47.1" cy="63.3" r="0.5"/>
<rect x="15.1" y="23.7" width="5" height="5"/>
<circle class="st1" cx="17.6" cy="26.2" r="0.5"/>
<rect x="22.3" y="23.7" width="5" height="5"/>
<circle class="st1" cx="24.8" cy="26.2" r="0.5"/>
<rect x="29.5" y="23.7" width="5" height="5"/>
<circle class="st1" cx="32" cy="26.2" r="0.5"/>
<rect x="36.7" y="23.7" width="5" height="5"/>
<circle class="st1" cx="39.2" cy="26.2" r="0.5"/>
<rect x="43.9" y="23.7" width="5" height="5"/>
<circle class="st1" cx="46.4" cy="26.2" r="0.5"/>
<rect x="51.1" y="23.7" width="5" height="5"/>
<circle class="st1" cx="53.6" cy="26.2" r="0.5"/>
<rect x="5.7" y="3.9" width="5.7" height="5.7"/>
<circle class="st1" cx="8.6" cy="6.8" r="0.9"/>
<rect x="5.7" y="11.1" width="5.7" height="5.7"/>
<circle class="st1" cx="8.6" cy="14" r="0.9"/>
<circle cx="18" cy="73.7" r="2.5"/>
<circle class="st1" cx="18" cy="73.7" r="0.9"/>
<circle cx="18" cy="48.5" r="2.5"/>
<circle class="st1" cx="18" cy="48.5" r="0.9"/>
<circle cx="54.3" cy="48.9" r="2.5"/>
<circle class="st1" cx="54.3" cy="48.9" r="0.9"/>
<circle cx="54.3" cy="74.1" r="2.5"/>
<circle class="st1" cx="54.3" cy="74.1" r="0.9"/>
<circle cx="11.5" cy="48.5" r="2.5"/>
<circle class="st1" cx="11.5" cy="48.5" r="0.9"/>
<circle cx="11.5" cy="73.7" r="2.5"/>
<circle class="st1" cx="11.5" cy="73.7" r="0.9"/>
<rect x="21.9" y="33.1" width="5" height="5"/>
<circle class="st1" cx="24.4" cy="35.6" r="0.5"/>
<rect x="21.9" y="40.3" width="5" height="5"/>
<circle class="st1" cx="24.4" cy="42.8" r="0.5"/>
<rect x="21.9" y="47.5" width="5" height="5"/>
<circle class="st1" cx="24.4" cy="50" r="0.5"/>
<rect x="0.3" y="0.3" class="st3" width="61.9" height="97.2"/>
</svg>
