<?xml version="1.0" encoding="utf-8"?>
<!-- Generator: Adobe Illustrator 21.1.0, SVG Export Plug-In . SVG Version: 6.00 Build 0)  -->
<svg version="1.1" id="Capa_1" xmlns="http://www.w3.org/2000/svg" xmlns:xlink="http://www.w3.org/1999/xlink" x="0px" y="0px"
	 width="62.5px" height="97.8px" viewBox="0 0 62.5 97.8" style="enable-background:new 0 0 62.5 97.8;" xml:space="preserve">
<style type="text/css">
	.st0{fill:#FFFFFF;}
	.st1{fill:none;stroke:#000000;stroke-width:2.5795;stroke-linecap:round;stroke-linejoin:bevel;stroke-miterlimit:10;}
	.st2{fill-rule:evenodd;clip-rule:evenodd;}
	.st3{fill-rule:evenodd;clip-rule:evenodd;fill:#FFFFFF;}
	.st4{fill:none;stroke:#000000;stroke-width:0.5669;stroke-linecap:round;stroke-linejoin:bevel;stroke-miterlimit:10;}
</style>
<rect class="st0" width="62.5" height="97.8"/>
<line class="st1" x1="47" y1="63.3" x2="55.8" y2="54.5"/>
<line class="st1" x1="55.8" y1="54.5" x2="55.8" y2="77.2"/>
<circle class="st2" cx="55.8" cy="77.2" r="1.3"/>
<line class="st1" x1="55.8" y1="77.2" x2="46.6" y2="86.3"/>
<line class="st1" x1="15.4" y1="54.2" x2="25.4" y2="44.2"/>
<circle class="st2" cx="25.4" cy="44.2" r="1.3"/>
<line class="st1" x1="25.4" y1="44.2" x2="25.4" y2="33.5"/>
<circle class="st2" cx="25.4" cy="33.5" r="1.3"/>
<line class="st1" x1="25.4" y1="33.5" x2="30.6" y2="28.4"/>
<circle class="st2" cx="30.6" cy="28.4" r="1.3"/>
<line class="st1" x1="30.6" y1="28.4" x2="30.6" y2="26.2"/>
<line class="st1" x1="15.6" y1="47.7" x2="9" y2="41"/>
<circle class="st2" cx="9" cy="41" r="1.3"/>
<line class="st1" x1="9" y1="41" x2="9" y2="26.2"/>
<line class="st1" x1="37.8" y1="26.2" x2="37.8" y2="27.7"/>
<circle class="st2" cx="37.8" cy="27.7" r="1.3"/>
<line class="st1" x1="37.8" y1="27.7" x2="31.8" y2="33.6"/>
<circle class="st2" cx="31.8" cy="33.6" r="1.3"/>
<line class="st1" x1="31.8" y1="33.6" x2="31.8" y2="54.1"/>
<circle class="st2" cx="31.8" cy="54.1" r="1.3"/>
<line class="st1" x1="31.8" y1="54.1" x2="34.2" y2="56.5"/>
<circle class="st2" cx="34.2" cy="56.5" r="1.3"/>
<line class="st1" x1="34.2" y1="56.5" x2="41" y2="56.5"/>
<circle class="st2" cx="41" cy="56.5" r="1.3"/>
<line class="st1" x1="41" y1="56.5" x2="42.8" y2="58.3"/>
<circle class="st2" cx="42.8" cy="58.3" r="1.3"/>
<line class="st1" x1="42.8" y1="58.3" x2="42.8" y2="66.9"/>
<line class="st1" x1="29.8" y1="59" x2="29.4" y2="58.6"/>
<circle class="st2" cx="29.4" cy="58.6" r="1.3"/>
<line class="st1" x1="29.4" y1="58.6" x2="3.4" y2="58.6"/>
<circle class="st2" cx="3.4" cy="58.6" r="1.3"/>
<path class="st1" d="M3.4,58.6"/>
<circle class="st2" cx="47" cy="63.3" r="1.4"/>
<circle class="st3" cx="47" cy="63.3" r="0.5"/>
<circle class="st2" cx="55.8" cy="54.5" r="1.4"/>
<circle class="st3" cx="55.8" cy="54.5" r="0.5"/>
<circle class="st2" cx="15.6" cy="47.7" r="1.4"/>
<circle class="st3" cx="15.6" cy="47.7" r="0.5"/>
<circle class="st2" cx="15.4" cy="54.2" r="1.4"/>
<circle class="st3" cx="15.4" cy="54.2" r="0.5"/>
<circle class="st2" cx="42.8" cy="66.9" r="1.4"/>
<circle class="st3" cx="42.8" cy="66.9" r="0.5"/>
<circle class="st2" cx="29.8" cy="59" r="1.4"/>
<circle class="st3" cx="29.8" cy="59" r="0.5"/>
<circle class="st2" cx="3.4" cy="58.6" r="1.4"/>
<circle class="st3" cx="3.4" cy="58.6" r="0.5"/>
<circle class="st2" cx="46.6" cy="86.3" r="1.4"/>
<circle class="st3" cx="46.6" cy="86.3" r="0.5"/>
<rect x="34.3" y="67.8" width="5.4" height="5.4"/>
<circle class="st3" cx="37" cy="70.5" r="0.9"/>
<rect x="27.1" y="67.8" width="5.4" height="5.4"/>
<circle class="st3" cx="29.8" cy="70.5" r="0.9"/>
<rect x="19.9" y="67.8" width="5.4" height="5.4"/>
<circle class="st3" cx="22.6" cy="70.5" r="0.9"/>
<rect x="12.7" y="67.8" width="5.4" height="5.4"/>
<circle class="st3" cx="15.4" cy="70.5" r="0.9"/>
<rect x="34.3" y="60.6" width="5.4" height="5.4"/>
<circle class="st3" cx="37" cy="63.3" r="0.9"/>
<rect x="27.1" y="60.6" width="5.4" height="5.4"/>
<circle class="st3" cx="29.8" cy="63.3" r="0.9"/>
<rect x="19.9" y="60.6" width="5.4" height="5.4"/>
<circle class="st3" cx="22.6" cy="63.3" r="0.9"/>
<rect x="12.7" y="60.6" width="5.4" height="5.4"/>
<circle class="st3" cx="15.4" cy="63.3" r="0.9"/>
<rect x="42.3" y="23.5" width="5.4" height="5.4"/>
<circle class="st3" cx="45" cy="26.2" r="0.9"/>
<rect x="35.1" y="23.5" width="5.4" height="5.4"/>
<circle class="st3" cx="37.8" cy="26.2" r="0.9"/>
<rect x="27.9" y="23.5" width="5.4" height="5.4"/>
<circle class="st3" cx="30.6" cy="26.2" r="0.9"/>
<rect x="20.7" y="23.5" width="5.4" height="5.4"/>
<circle class="st3" cx="23.4" cy="26.2" r="0.9"/>
<rect x="13.5" y="23.5" width="5.4" height="5.4"/>
<circle class="st3" cx="16.2" cy="26.2" r="0.9"/>
<rect x="6.3" y="23.5" width="5.4" height="5.4"/>
<circle class="st3" cx="9" cy="26.2" r="0.9"/>
<rect x="0.3" y="0.3" class="st4" width="61.9" height="97.2"/>
</svg>
