<?xml version="1.0" encoding="utf-8"?>
<!-- Generator: Adobe Illustrator 21.1.0, SVG Export Plug-In . SVG Version: 6.00 Build 0)  -->
<svg version="1.1" id="Capa_1" xmlns="http://www.w3.org/2000/svg" xmlns:xlink="http://www.w3.org/1999/xlink" x="0px" y="0px"
	 width="62.5px" height="97.8px" viewBox="0 0 62.5 97.8" style="enable-background:new 0 0 62.5 97.8;" xml:space="preserve">
<style type="text/css">
	.st0{fill:none;stroke:#000000;stroke-width:2.5795;stroke-linecap:round;stroke-linejoin:bevel;stroke-miterlimit:10;}
	.st1{fill:#FFFFFF;}
	.st2{fill:none;stroke:#000000;stroke-width:0.5669;stroke-linecap:round;stroke-linejoin:bevel;stroke-miterlimit:10;}
</style>
<line class="st0" x1="15.9" y1="48" x2="8.9" y2="41.1"/>
<circle cx="8.9" cy="41.1" r="1.3"/>
<line class="st0" x1="8.9" y1="41.1" x2="8.9" y2="26.2"/>
<line class="st0" x1="55.1" y1="52.7" x2="46.8" y2="61"/>
<circle cx="46.8" cy="61" r="1.3"/>
<line class="st0" x1="46.8" y1="61" x2="46.8" y2="63.3"/>
<line class="st0" x1="55.1" y1="52.7" x2="59.3" y2="56.8"/>
<circle cx="59.3" cy="56.8" r="1.3"/>
<line class="st0" x1="59.3" y1="56.8" x2="59.3" y2="59.7"/>
<circle cx="59.3" cy="59.7" r="1.3"/>
<line class="st0" x1="59.3" y1="59.7" x2="59.3" y2="73.8"/>
<circle cx="59.3" cy="73.8" r="1.3"/>
<line class="st0" x1="59.3" y1="73.8" x2="46.8" y2="86.4"/>
<line class="st0" x1="46.8" y1="86.4" x2="46.8" y2="86.4"/>
<line class="st0" x1="3.3" y1="58.2" x2="28.7" y2="58.2"/>
<circle cx="28.7" cy="58.2" r="1.3"/>
<line class="st0" x1="28.7" y1="58.2" x2="29.8" y2="59.3"/>
<line class="st0" x1="17.2" y1="54.1" x2="25.7" y2="45.6"/>
<circle cx="25.7" cy="45.6" r="1.3"/>
<line class="st0" x1="25.7" y1="45.6" x2="25.7" y2="33.2"/>
<circle cx="25.7" cy="33.2" r="1.3"/>
<line class="st0" x1="25.7" y1="33.2" x2="30.5" y2="28.4"/>
<circle cx="30.5" cy="28.4" r="1.3"/>
<line class="st0" x1="30.5" y1="28.4" x2="30.5" y2="26.2"/>
<line class="st0" x1="37.7" y1="26.2" x2="37.7" y2="27.7"/>
<circle cx="37.7" cy="27.7" r="1.3"/>
<line class="st0" x1="37.7" y1="27.7" x2="31.8" y2="33.7"/>
<circle cx="31.8" cy="33.7" r="1.3"/>
<line class="st0" x1="31.8" y1="33.7" x2="31.8" y2="54.1"/>
<circle cx="31.8" cy="54.1" r="1.3"/>
<line class="st0" x1="31.8" y1="54.1" x2="34.9" y2="57.2"/>
<circle cx="34.9" cy="57.2" r="1.3"/>
<line class="st0" x1="34.9" y1="57.2" x2="40.2" y2="57.2"/>
<circle cx="40.2" cy="57.2" r="1.3"/>
<line class="st0" x1="40.2" y1="57.2" x2="42.8" y2="59.7"/>
<circle cx="42.8" cy="59.7" r="1.3"/>
<line class="st0" x1="42.8" y1="59.7" x2="42.8" y2="66.9"/>
<circle cx="55.1" cy="52.7" r="1.4"/>
<circle class="st1" cx="55.1" cy="52.7" r="0.5"/>
<circle cx="46.8" cy="63.3" r="1.4"/>
<circle class="st1" cx="46.8" cy="63.3" r="0.5"/>
<circle cx="15.9" cy="48" r="1.4"/>
<circle class="st1" cx="15.9" cy="48" r="0.5"/>
<circle cx="46.8" cy="86.4" r="1.4"/>
<circle class="st1" cx="46.8" cy="86.4" r="0.5"/>
<circle cx="46.8" cy="86.4" r="1.4"/>
<circle class="st1" cx="46.8" cy="86.4" r="0.5"/>
<circle cx="3.3" cy="58.2" r="1.4"/>
<circle class="st1" cx="3.3" cy="58.2" r="0.5"/>
<circle cx="29.8" cy="59.3" r="1.4"/>
<circle class="st1" cx="29.8" cy="59.3" r="0.5"/>
<circle cx="17.2" cy="54.1" r="1.4"/>
<circle class="st1" cx="17.2" cy="54.1" r="0.5"/>
<circle cx="42.8" cy="66.9" r="1.4"/>
<circle class="st1" cx="42.8" cy="66.9" r="0.5"/>
<rect x="35.2" y="23.7" width="5" height="5"/>
<circle class="st1" cx="37.7" cy="26.2" r="0.5"/>
<rect x="28" y="23.7" width="5" height="5"/>
<circle class="st1" cx="30.5" cy="26.2" r="0.5"/>
<rect x="6.4" y="23.7" width="5" height="5"/>
<circle class="st1" cx="8.9" cy="26.2" r="0.5"/>
<rect x="0.3" y="0.3" class="st2" width="61.9" height="97.2"/>
</svg>
